<svg width="1456" height="1036" viewBox="0 0 1456 1036" fill="none" xmlns="http://www.w3.org/2000/svg">
<rect x="0.25" width="1455.5" height="1036" rx="8" fill="black"/>
<path d="M480.08 518L470.08 512.227L470.08 523.774L480.08 518ZM404.241 519C404.794 519 405.241 518.552 405.241 518C405.241 517.448 404.794 517 404.241 517L404.241 519ZM412.225 517C411.672 517 411.225 517.448 411.225 518C411.225 518.552 411.672 519 412.225 519L412.225 517ZM420.208 519C420.76 519 421.208 518.552 421.208 518C421.208 517.448 420.76 517 420.208 517L420.208 519ZM428.19 517C427.638 517 427.19 517.448 427.19 518C427.19 518.552 427.638 519 428.19 519L428.19 517ZM436.173 519C436.726 519 437.174 518.552 437.174 518C437.174 517.448 436.726 517 436.174 517L436.173 519ZM444.157 517C443.604 517 443.157 517.448 443.157 518C443.157 518.552 443.604 519 444.157 519L444.157 517ZM452.14 519C452.692 519 453.14 518.552 453.14 518C453.14 517.448 452.692 517 452.14 517L452.14 519ZM460.123 517C459.57 517 459.123 517.448 459.123 518C459.123 518.552 459.57 519 460.123 519L460.123 517ZM468.106 519C468.658 519 469.106 518.552 469.106 518C469.106 517.448 468.658 517 468.106 517L468.106 519ZM476.089 517C475.536 517 475.089 517.448 475.089 518C475.089 518.552 475.536 519 476.089 519L476.089 517ZM400.25 519L404.241 519L404.241 517L400.25 517L400.25 519ZM412.225 519L420.208 519L420.208 517L412.225 517L412.225 519ZM428.19 519L436.173 519L436.174 517L428.19 517L428.19 519ZM444.157 519L452.14 519L452.14 517L444.157 517L444.157 519ZM460.123 519L468.106 519L468.106 517L460.123 517L460.123 519Z" fill="#C8C8C8"/>
<rect x="481.25" y="412" width="398" height="211" rx="7" fill="#141516"/>
<path d="M526.337 468.412C526.841 468.412 527.25 468.003 527.25 467.499C527.25 466.995 526.841 466.586 526.337 466.586C525.833 466.586 525.424 466.995 525.424 467.499C525.424 468.003 525.833 468.412 526.337 468.412Z" fill="#D2E0F8"/>
<path d="M529.988 458.276V458.988H522.685V458.014H529.806C529.519 457.567 529.313 457.072 529.197 456.553H522.685V455.579H529.075V455.543C529.074 454.646 529.339 453.769 529.836 453.023H521.163C520.921 453.023 520.689 453.119 520.517 453.29C520.346 453.462 520.25 453.694 520.25 453.936V472.5H532.423V459.937C531.45 459.668 530.594 459.083 529.988 458.276ZM526.337 469.323C525.975 469.323 525.622 469.216 525.322 469.015C525.022 468.814 524.788 468.529 524.65 468.196C524.511 467.862 524.475 467.495 524.546 467.141C524.616 466.786 524.79 466.461 525.045 466.206C525.301 465.95 525.626 465.776 525.98 465.706C526.335 465.635 526.702 465.672 527.035 465.81C527.369 465.948 527.654 466.182 527.855 466.482C528.055 466.783 528.163 467.136 528.163 467.497C528.163 467.981 527.97 468.445 527.628 468.788C527.285 469.13 526.821 469.323 526.337 469.323Z" fill="#D2E0F8"/>
<path d="M533.64 458.587C535.321 458.587 536.684 457.225 536.684 455.544C536.684 453.863 535.321 452.5 533.64 452.5C531.96 452.5 530.597 453.863 530.597 455.544C530.597 457.225 531.96 458.587 533.64 458.587Z" fill="#D2E0F8"/>
<path d="M545.908 469V456.4H548.212V461.638H553.864V456.4H556.168V469H553.864V463.51H548.212V469H545.908ZM562.847 469.216C561.983 469.216 561.203 469.018 560.507 468.622C559.823 468.226 559.277 467.68 558.869 466.984C558.473 466.276 558.275 465.46 558.275 464.536C558.275 463.612 558.479 462.802 558.887 462.106C559.295 461.398 559.841 460.846 560.525 460.45C561.221 460.054 562.001 459.856 562.865 459.856C563.717 459.856 564.485 460.054 565.169 460.45C565.865 460.846 566.411 461.398 566.807 462.106C567.215 462.802 567.419 463.612 567.419 464.536C567.419 465.46 567.215 466.276 566.807 466.984C566.411 467.68 565.865 468.226 565.169 468.622C564.473 469.018 563.699 469.216 562.847 469.216ZM562.847 467.218C563.447 467.218 563.969 466.996 564.413 466.552C564.857 466.096 565.079 465.424 565.079 464.536C565.079 463.648 564.857 462.982 564.413 462.538C563.969 462.082 563.453 461.854 562.865 461.854C562.253 461.854 561.725 462.082 561.281 462.538C560.849 462.982 560.633 463.648 560.633 464.536C560.633 465.424 560.849 466.096 561.281 466.552C561.725 466.996 562.247 467.218 562.847 467.218ZM573.169 469.216C572.377 469.216 571.681 469.09 571.081 468.838C570.481 468.574 570.001 468.214 569.641 467.758C569.281 467.302 569.065 466.774 568.993 466.174H571.315C571.387 466.522 571.579 466.822 571.891 467.074C572.215 467.314 572.629 467.434 573.133 467.434C573.637 467.434 574.003 467.332 574.231 467.128C574.471 466.924 574.591 466.69 574.591 466.426C574.591 466.042 574.423 465.784 574.087 465.652C573.751 465.508 573.283 465.37 572.683 465.238C572.299 465.154 571.909 465.052 571.513 464.932C571.117 464.812 570.751 464.662 570.415 464.482C570.091 464.29 569.827 464.05 569.623 463.762C569.419 463.462 569.317 463.096 569.317 462.664C569.317 461.872 569.629 461.206 570.253 460.666C570.889 460.126 571.777 459.856 572.917 459.856C573.973 459.856 574.813 460.102 575.437 460.594C576.073 461.086 576.451 461.764 576.571 462.628H574.393C574.261 461.968 573.763 461.638 572.899 461.638C572.467 461.638 572.131 461.722 571.891 461.89C571.663 462.058 571.549 462.268 571.549 462.52C571.549 462.784 571.723 462.994 572.071 463.15C572.419 463.306 572.881 463.45 573.457 463.582C574.081 463.726 574.651 463.888 575.167 464.068C575.695 464.236 576.115 464.494 576.427 464.842C576.739 465.178 576.895 465.664 576.895 466.3C576.907 466.852 576.763 467.35 576.463 467.794C576.163 468.238 575.731 468.586 575.167 468.838C574.603 469.09 573.937 469.216 573.169 469.216ZM582.632 469C581.696 469 580.946 468.772 580.382 468.316C579.818 467.86 579.536 467.05 579.536 465.886V461.998H578.006V460.072H579.536L579.806 457.678H581.84V460.072H584.252V461.998H581.84V465.904C581.84 466.336 581.93 466.636 582.11 466.804C582.302 466.96 582.626 467.038 583.082 467.038H584.198V469H582.632Z" fill="#D2E0F8"/>
<rect x="521.25" y="491" width="318" height="92" rx="11" fill="#2A2117"/>
<path d="M613.75 524.998C611.403 524.998 609.5 526.9 609.5 529.248C609.5 531.339 611.01 533.077 613 533.432V536.5H608.5C607.257 536.5 606.25 537.507 606.25 538.75V540.566C604.26 540.92 602.75 542.659 602.75 544.75C602.75 547.097 604.653 549 607 549C609.347 549 611.25 547.097 611.25 544.75C611.25 542.659 609.74 540.92 607.75 540.566V538.75C607.75 538.336 608.086 538 608.5 538H619C619.414 538 619.75 538.336 619.75 538.75V540.566C617.76 540.92 616.25 542.659 616.25 544.75C616.25 547.097 618.153 549 620.5 549C622.847 549 624.75 547.097 624.75 544.75C624.75 542.659 623.24 540.92 621.25 540.566V538.75C621.25 537.507 620.243 536.5 619 536.5H614.5V533.432C616.49 533.077 618 531.339 618 529.248C618 526.9 616.097 524.998 613.75 524.998ZM611 529.248C611 527.729 612.231 526.498 613.75 526.498C615.269 526.498 616.5 527.729 616.5 529.248C616.5 530.766 615.269 531.998 613.75 531.998C612.231 531.998 611 530.766 611 529.248ZM604.25 544.75C604.25 543.231 605.481 542 607 542C608.519 542 609.75 543.231 609.75 544.75C609.75 546.269 608.519 547.5 607 547.5C605.481 547.5 604.25 546.269 604.25 544.75ZM620.5 542C622.019 542 623.25 543.231 623.25 544.75C623.25 546.269 622.019 547.5 620.5 547.5C618.981 547.5 617.75 546.269 617.75 544.75C617.75 543.231 618.981 542 620.5 542Z" fill="#EF8625"/>
<path d="M644.919 544.764C644.097 544.764 643.379 544.61 642.763 544.302C642.147 543.994 641.648 543.561 641.267 543.004L640.959 544.5H638.451V528.66H641.267V535.15C641.619 534.666 642.081 534.241 642.653 533.874C643.239 533.507 643.995 533.324 644.919 533.324C645.945 533.324 646.862 533.573 647.669 534.072C648.475 534.571 649.113 535.253 649.583 536.118C650.052 536.983 650.287 537.966 650.287 539.066C650.287 540.166 650.052 541.149 649.583 542.014C649.113 542.865 648.475 543.539 647.669 544.038C646.862 544.522 645.945 544.764 644.919 544.764ZM644.325 542.3C645.219 542.3 645.96 541.999 646.547 541.398C647.133 540.797 647.427 540.019 647.427 539.066C647.427 538.113 647.133 537.328 646.547 536.712C645.96 536.096 645.219 535.788 644.325 535.788C643.415 535.788 642.667 536.096 642.081 536.712C641.509 537.313 641.223 538.091 641.223 539.044C641.223 539.997 641.509 540.782 642.081 541.398C642.667 541.999 643.415 542.3 644.325 542.3ZM658.038 544.764C656.982 544.764 656.029 544.522 655.178 544.038C654.342 543.554 653.675 542.887 653.176 542.036C652.692 541.171 652.45 540.173 652.45 539.044C652.45 537.915 652.699 536.925 653.198 536.074C653.697 535.209 654.364 534.534 655.2 534.05C656.051 533.566 657.004 533.324 658.06 533.324C659.101 533.324 660.04 533.566 660.876 534.05C661.727 534.534 662.394 535.209 662.878 536.074C663.377 536.925 663.626 537.915 663.626 539.044C663.626 540.173 663.377 541.171 662.878 542.036C662.394 542.887 661.727 543.554 660.876 544.038C660.025 544.522 659.079 544.764 658.038 544.764ZM658.038 542.322C658.771 542.322 659.409 542.051 659.952 541.508C660.495 540.951 660.766 540.129 660.766 539.044C660.766 537.959 660.495 537.145 659.952 536.602C659.409 536.045 658.779 535.766 658.06 535.766C657.312 535.766 656.667 536.045 656.124 536.602C655.596 537.145 655.332 537.959 655.332 539.044C655.332 540.129 655.596 540.951 656.124 541.508C656.667 542.051 657.305 542.322 658.038 542.322ZM666.144 544.5V528.66H668.96V544.5H666.144ZM676.699 544.5C675.555 544.5 674.639 544.221 673.949 543.664C673.26 543.107 672.915 542.117 672.915 540.694V535.942H671.045V533.588H672.915L673.245 530.662H675.731V533.588H678.679V535.942H675.731V540.716C675.731 541.244 675.841 541.611 676.061 541.816C676.296 542.007 676.692 542.102 677.249 542.102H678.613V544.5H676.699ZM686.405 544.5V529.1H692.103C693.335 529.1 694.355 529.305 695.161 529.716C695.968 530.127 696.569 530.691 696.965 531.41C697.361 532.129 697.559 532.935 697.559 533.83C697.559 534.681 697.369 535.465 696.987 536.184C696.606 536.888 696.012 537.46 695.205 537.9C694.399 538.325 693.365 538.538 692.103 538.538H689.221V544.5H686.405ZM689.221 536.25H691.927C692.91 536.25 693.614 536.037 694.039 535.612C694.479 535.172 694.699 534.578 694.699 533.83C694.699 533.067 694.479 532.473 694.039 532.048C693.614 531.608 692.91 531.388 691.927 531.388H689.221V536.25ZM699.702 544.5V533.588H702.21L702.474 535.634C702.87 534.93 703.406 534.373 704.08 533.962C704.77 533.537 705.576 533.324 706.5 533.324V536.294H705.708C705.092 536.294 704.542 536.389 704.058 536.58C703.574 536.771 703.193 537.101 702.914 537.57C702.65 538.039 702.518 538.692 702.518 539.528V544.5H699.702ZM713.468 544.764C712.412 544.764 711.458 544.522 710.608 544.038C709.772 543.554 709.104 542.887 708.606 542.036C708.122 541.171 707.88 540.173 707.88 539.044C707.88 537.915 708.129 536.925 708.628 536.074C709.126 535.209 709.794 534.534 710.63 534.05C711.48 533.566 712.434 533.324 713.49 533.324C714.531 533.324 715.47 533.566 716.306 534.05C717.156 534.534 717.824 535.209 718.308 536.074C718.806 536.925 719.056 537.915 719.056 539.044C719.056 540.173 718.806 541.171 718.308 542.036C717.824 542.887 717.156 543.554 716.306 544.038C715.455 544.522 714.509 544.764 713.468 544.764ZM713.468 542.322C714.201 542.322 714.839 542.051 715.382 541.508C715.924 540.951 716.196 540.129 716.196 539.044C716.196 537.959 715.924 537.145 715.382 536.602C714.839 536.045 714.208 535.766 713.49 535.766C712.742 535.766 712.096 536.045 711.554 536.602C711.026 537.145 710.762 537.959 710.762 539.044C710.762 540.129 711.026 540.951 711.554 541.508C712.096 542.051 712.734 542.322 713.468 542.322ZM723.136 531.894C722.622 531.894 722.197 531.74 721.86 531.432C721.537 531.124 721.376 530.735 721.376 530.266C721.376 529.797 721.537 529.415 721.86 529.122C722.197 528.814 722.622 528.66 723.136 528.66C723.649 528.66 724.067 528.814 724.39 529.122C724.727 529.415 724.896 529.797 724.896 530.266C724.896 530.735 724.727 531.124 724.39 531.432C724.067 531.74 723.649 531.894 723.136 531.894ZM719.506 549.34V546.942H720.364C720.848 546.942 721.192 546.847 721.398 546.656C721.603 546.465 721.706 546.143 721.706 545.688V533.588H724.522V545.688C724.522 547.008 724.184 547.947 723.51 548.504C722.85 549.061 721.948 549.34 720.804 549.34H719.506ZM732.762 544.764C731.662 544.764 730.687 544.529 729.836 544.06C728.986 543.591 728.318 542.931 727.834 542.08C727.35 541.229 727.108 540.247 727.108 539.132C727.108 538.003 727.343 536.998 727.812 536.118C728.296 535.238 728.956 534.556 729.792 534.072C730.643 533.573 731.64 533.324 732.784 533.324C733.855 533.324 734.801 533.559 735.622 534.028C736.444 534.497 737.082 535.143 737.536 535.964C738.006 536.771 738.24 537.673 738.24 538.67C738.24 538.831 738.233 539 738.218 539.176C738.218 539.352 738.211 539.535 738.196 539.726H729.902C729.961 540.577 730.254 541.244 730.782 541.728C731.325 542.212 731.978 542.454 732.74 542.454C733.312 542.454 733.789 542.329 734.17 542.08C734.566 541.816 734.86 541.479 735.05 541.068H737.91C737.705 541.757 737.36 542.388 736.876 542.96C736.407 543.517 735.82 543.957 735.116 544.28C734.427 544.603 733.642 544.764 732.762 544.764ZM732.784 535.612C732.095 535.612 731.486 535.81 730.958 536.206C730.43 536.587 730.093 537.174 729.946 537.966H735.38C735.336 537.247 735.072 536.675 734.588 536.25C734.104 535.825 733.503 535.612 732.784 535.612ZM745.955 544.764C744.84 544.764 743.857 544.522 743.007 544.038C742.156 543.554 741.481 542.879 740.983 542.014C740.499 541.149 740.257 540.159 740.257 539.044C740.257 537.929 740.499 536.939 740.983 536.074C741.481 535.209 742.156 534.534 743.007 534.05C743.857 533.566 744.84 533.324 745.955 533.324C747.348 533.324 748.521 533.691 749.475 534.424C750.428 535.143 751.037 536.14 751.301 537.416H748.331C748.184 536.888 747.891 536.477 747.451 536.184C747.025 535.876 746.519 535.722 745.933 535.722C745.155 535.722 744.495 536.015 743.953 536.602C743.41 537.189 743.139 538.003 743.139 539.044C743.139 540.085 743.41 540.899 743.953 541.486C744.495 542.073 745.155 542.366 745.933 542.366C746.519 542.366 747.025 542.219 747.451 541.926C747.891 541.633 748.184 541.215 748.331 540.672H751.301C751.037 541.904 750.428 542.894 749.475 543.642C748.521 544.39 747.348 544.764 745.955 544.764ZM758.512 544.5C757.368 544.5 756.451 544.221 755.762 543.664C755.072 543.107 754.728 542.117 754.728 540.694V535.942H752.858V533.588H754.728L755.058 530.662H757.544V533.588H760.492V535.942H757.544V540.716C757.544 541.244 757.654 541.611 757.874 541.816C758.108 542.007 758.504 542.102 759.062 542.102H760.426V544.5H758.512Z" fill="#EF8625"/>
<rect x="521.25" y="491" width="318" height="92" rx="11" stroke="#EF8625" stroke-width="2"/>
<rect x="481.25" y="412" width="398" height="211" rx="7" stroke="#5F5872" stroke-width="2"/>
<rect x="1041.75" y="81" width="333" height="178" rx="7" fill="#141516"/>
<g clip-path="url(#clip0_67_365)">
<path d="M1100.34 129.781C1099.89 129.469 1098.86 129.351 1098.05 129.508C1097.95 128.726 1097.52 128.043 1096.77 127.437L1096.34 127.125L1096.04 127.574C1095.67 128.16 1095.48 128.98 1095.53 129.762C1095.55 130.035 1095.65 130.523 1095.93 130.953C1095.67 131.109 1095.12 131.304 1094.41 131.304H1080.84L1080.8 131.461C1080.67 132.242 1080.67 134.683 1082.21 136.558C1083.37 137.984 1085.1 138.706 1087.37 138.706C1092.29 138.706 1095.93 136.343 1097.64 132.066C1098.31 132.086 1099.76 132.066 1100.49 130.601C1100.51 130.562 1100.54 130.484 1100.68 130.191L1100.75 130.035L1100.34 129.781ZM1091.69 124.273H1089.62V126.226H1091.69V124.273ZM1091.69 126.617H1089.62V128.57H1091.69V126.617V126.617ZM1089.25 126.617H1087.18V128.57H1089.25V126.617V126.617ZM1086.81 126.617H1084.74V128.57H1086.81V126.617V126.617ZM1084.37 128.961H1082.3V130.914H1084.37V128.961L1084.37 128.961ZM1086.81 128.961H1084.74V130.914H1086.81V128.961ZM1089.25 128.961H1087.18V130.914H1089.25V128.961ZM1091.69 128.961H1089.62V130.914H1091.69V128.961ZM1094.13 128.961H1092.06V130.914H1094.13V128.961Z" fill="#2396ED"/>
</g>
<path d="M1110.03 138V125.4H1114.33C1115.81 125.4 1117.02 125.664 1117.97 126.192C1118.93 126.708 1119.63 127.44 1120.09 128.388C1120.56 129.324 1120.79 130.428 1120.79 131.7C1120.79 132.972 1120.56 134.082 1120.09 135.03C1119.63 135.966 1118.93 136.698 1117.97 137.226C1117.02 137.742 1115.81 138 1114.33 138H1110.03ZM1112.33 136.02H1114.22C1115.28 136.02 1116.11 135.852 1116.72 135.516C1117.34 135.168 1117.77 134.676 1118.04 134.04C1118.3 133.392 1118.43 132.612 1118.43 131.7C1118.43 130.8 1118.3 130.026 1118.04 129.378C1117.77 128.73 1117.34 128.232 1116.72 127.884C1116.11 127.536 1115.28 127.362 1114.22 127.362H1112.33V136.02ZM1127.05 138.216C1126.19 138.216 1125.41 138.018 1124.71 137.622C1124.03 137.226 1123.48 136.68 1123.08 135.984C1122.68 135.276 1122.48 134.46 1122.48 133.536C1122.48 132.612 1122.69 131.802 1123.09 131.106C1123.5 130.398 1124.05 129.846 1124.73 129.45C1125.43 129.054 1126.21 128.856 1127.07 128.856C1127.92 128.856 1128.69 129.054 1129.38 129.45C1130.07 129.846 1130.62 130.398 1131.01 131.106C1131.42 131.802 1131.63 132.612 1131.63 133.536C1131.63 134.46 1131.42 135.276 1131.01 135.984C1130.62 136.68 1130.07 137.226 1129.38 137.622C1128.68 138.018 1127.91 138.216 1127.05 138.216ZM1127.05 136.218C1127.65 136.218 1128.18 135.996 1128.62 135.552C1129.06 135.096 1129.29 134.424 1129.29 133.536C1129.29 132.648 1129.06 131.982 1128.62 131.538C1128.18 131.082 1127.66 130.854 1127.07 130.854C1126.46 130.854 1125.93 131.082 1125.49 131.538C1125.06 131.982 1124.84 132.648 1124.84 133.536C1124.84 134.424 1125.06 135.096 1125.49 135.552C1125.93 135.996 1126.45 136.218 1127.05 136.218ZM1138.06 138.216C1137.15 138.216 1136.34 138.018 1135.65 137.622C1134.95 137.226 1134.4 136.674 1133.99 135.966C1133.6 135.258 1133.4 134.448 1133.4 133.536C1133.4 132.624 1133.6 131.814 1133.99 131.106C1134.4 130.398 1134.95 129.846 1135.65 129.45C1136.34 129.054 1137.15 128.856 1138.06 128.856C1139.2 128.856 1140.16 129.156 1140.94 129.756C1141.72 130.344 1142.22 131.16 1142.43 132.204H1140C1139.88 131.772 1139.64 131.436 1139.28 131.196C1138.94 130.944 1138.52 130.818 1138.04 130.818C1137.41 130.818 1136.87 131.058 1136.42 131.538C1135.98 132.018 1135.76 132.684 1135.76 133.536C1135.76 134.388 1135.98 135.054 1136.42 135.534C1136.87 136.014 1137.41 136.254 1138.04 136.254C1138.52 136.254 1138.94 136.134 1139.28 135.894C1139.64 135.654 1139.88 135.312 1140 134.868H1142.43C1142.22 135.876 1141.72 136.686 1140.94 137.298C1140.16 137.91 1139.2 138.216 1138.06 138.216ZM1144.48 138V125.04H1146.78V132.69L1149.95 129.072H1152.69L1149.03 133.14L1153.28 138H1150.4L1146.78 133.518V138H1144.48ZM1158.31 138.216C1157.41 138.216 1156.61 138.024 1155.92 137.64C1155.22 137.256 1154.67 136.716 1154.28 136.02C1153.88 135.324 1153.68 134.52 1153.68 133.608C1153.68 132.684 1153.88 131.862 1154.26 131.142C1154.66 130.422 1155.2 129.864 1155.88 129.468C1156.58 129.06 1157.39 128.856 1158.33 128.856C1159.2 128.856 1159.98 129.048 1160.65 129.432C1161.32 129.816 1161.84 130.344 1162.22 131.016C1162.6 131.676 1162.79 132.414 1162.79 133.23C1162.79 133.362 1162.79 133.5 1162.77 133.644C1162.77 133.788 1162.77 133.938 1162.76 134.094H1155.97C1156.02 134.79 1156.26 135.336 1156.69 135.732C1157.13 136.128 1157.67 136.326 1158.29 136.326C1158.76 136.326 1159.15 136.224 1159.46 136.02C1159.79 135.804 1160.03 135.528 1160.18 135.192H1162.52C1162.35 135.756 1162.07 136.272 1161.68 136.74C1161.29 137.196 1160.81 137.556 1160.24 137.82C1159.67 138.084 1159.03 138.216 1158.31 138.216ZM1158.33 130.728C1157.76 130.728 1157.27 130.89 1156.83 131.214C1156.4 131.526 1156.13 132.006 1156.01 132.654H1160.45C1160.42 132.066 1160.2 131.598 1159.8 131.25C1159.41 130.902 1158.92 130.728 1158.33 130.728ZM1164.73 138V129.072H1166.78L1167 130.746C1167.32 130.17 1167.76 129.714 1168.31 129.378C1168.88 129.03 1169.54 128.856 1170.29 128.856V131.286H1169.64C1169.14 131.286 1168.69 131.364 1168.29 131.52C1167.9 131.676 1167.59 131.946 1167.36 132.33C1167.14 132.714 1167.03 133.248 1167.03 133.932V138H1164.73Z" fill="#D2E0F8"/>
<rect x="1081.75" y="160" width="253" height="59" rx="11" fill="#9F4CBC" fill-opacity="0.1"/>
<path d="M1163.55 197V181.6H1169.25C1170.48 181.6 1171.5 181.805 1172.31 182.216C1173.12 182.627 1173.72 183.191 1174.11 183.91C1174.51 184.629 1174.71 185.435 1174.71 186.33C1174.71 187.181 1174.52 187.965 1174.14 188.684C1173.76 189.388 1173.16 189.96 1172.35 190.4C1171.55 190.825 1170.51 191.038 1169.25 191.038H1166.37V197H1163.55ZM1166.37 188.75H1169.08C1170.06 188.75 1170.76 188.537 1171.19 188.112C1171.63 187.672 1171.85 187.078 1171.85 186.33C1171.85 185.567 1171.63 184.973 1171.19 184.548C1170.76 184.108 1170.06 183.888 1169.08 183.888H1166.37V188.75ZM1181.53 197.264C1180.47 197.264 1179.52 197.022 1178.67 196.538C1177.83 196.054 1177.17 195.387 1176.67 194.536C1176.18 193.671 1175.94 192.673 1175.94 191.544C1175.94 190.415 1176.19 189.425 1176.69 188.574C1177.19 187.709 1177.86 187.034 1178.69 186.55C1179.54 186.066 1180.5 185.824 1181.55 185.824C1182.59 185.824 1183.53 186.066 1184.37 186.55C1185.22 187.034 1185.89 187.709 1186.37 188.574C1186.87 189.425 1187.12 190.415 1187.12 191.544C1187.12 192.673 1186.87 193.671 1186.37 194.536C1185.89 195.387 1185.22 196.054 1184.37 196.538C1183.52 197.022 1182.57 197.264 1181.53 197.264ZM1181.53 194.822C1182.26 194.822 1182.9 194.551 1183.44 194.008C1183.99 193.451 1184.26 192.629 1184.26 191.544C1184.26 190.459 1183.99 189.645 1183.44 189.102C1182.9 188.545 1182.27 188.266 1181.55 188.266C1180.8 188.266 1180.16 188.545 1179.62 189.102C1179.09 189.645 1178.82 190.459 1178.82 191.544C1178.82 192.629 1179.09 193.451 1179.62 194.008C1180.16 194.551 1180.8 194.822 1181.53 194.822ZM1194.15 197.264C1193.18 197.264 1192.33 197.11 1191.59 196.802C1190.86 196.479 1190.27 196.039 1189.83 195.482C1189.39 194.925 1189.13 194.279 1189.04 193.546H1191.88C1191.97 193.971 1192.2 194.338 1192.58 194.646C1192.98 194.939 1193.49 195.086 1194.1 195.086C1194.72 195.086 1195.16 194.961 1195.44 194.712C1195.74 194.463 1195.88 194.177 1195.88 193.854C1195.88 193.385 1195.68 193.069 1195.27 192.908C1194.86 192.732 1194.28 192.563 1193.55 192.402C1193.08 192.299 1192.61 192.175 1192.12 192.028C1191.64 191.881 1191.19 191.698 1190.78 191.478C1190.38 191.243 1190.06 190.95 1189.81 190.598C1189.56 190.231 1189.44 189.784 1189.44 189.256C1189.44 188.288 1189.82 187.474 1190.58 186.814C1191.36 186.154 1192.44 185.824 1193.84 185.824C1195.13 185.824 1196.15 186.125 1196.92 186.726C1197.69 187.327 1198.16 188.156 1198.3 189.212H1195.64C1195.48 188.405 1194.87 188.002 1193.82 188.002C1193.29 188.002 1192.88 188.105 1192.58 188.31C1192.3 188.515 1192.17 188.772 1192.17 189.08C1192.17 189.403 1192.38 189.659 1192.8 189.85C1193.23 190.041 1193.79 190.217 1194.5 190.378C1195.26 190.554 1195.96 190.752 1196.59 190.972C1197.23 191.177 1197.75 191.493 1198.13 191.918C1198.51 192.329 1198.7 192.923 1198.7 193.7C1198.71 194.375 1198.54 194.983 1198.17 195.526C1197.8 196.069 1197.28 196.494 1196.59 196.802C1195.9 197.11 1195.08 197.264 1194.15 197.264ZM1205.71 197C1204.57 197 1203.65 196.721 1202.96 196.164C1202.27 195.607 1201.93 194.617 1201.93 193.194V188.442H1200.06V186.088H1201.93L1202.26 183.162H1204.74V186.088H1207.69V188.442H1204.74V193.216C1204.74 193.744 1204.85 194.111 1205.07 194.316C1205.31 194.507 1205.7 194.602 1206.26 194.602H1207.63V197H1205.71ZM1214.73 193.744C1214.2 193.744 1213.71 193.685 1213.26 193.568L1212.44 194.382C1212.69 194.514 1213.03 194.624 1213.45 194.712C1213.88 194.8 1214.57 194.888 1215.52 194.976C1216.97 195.108 1218.03 195.453 1218.69 196.01C1219.35 196.567 1219.68 197.337 1219.68 198.32C1219.68 198.965 1219.5 199.574 1219.15 200.146C1218.8 200.733 1218.26 201.202 1217.52 201.554C1216.79 201.921 1215.85 202.104 1214.71 202.104C1213.15 202.104 1211.9 201.811 1210.95 201.224C1209.99 200.652 1209.52 199.787 1209.52 198.628C1209.52 197.645 1209.99 196.795 1210.95 196.076C1210.65 195.944 1210.4 195.805 1210.18 195.658C1209.97 195.511 1209.79 195.357 1209.63 195.196V194.69L1211.54 192.666C1210.69 191.918 1210.26 190.957 1210.26 189.784C1210.26 189.051 1210.44 188.383 1210.79 187.782C1211.16 187.181 1211.67 186.704 1212.33 186.352C1212.99 186 1213.79 185.824 1214.73 185.824C1215.35 185.824 1215.92 185.912 1216.45 186.088H1220.58V187.804L1218.71 187.936C1219.01 188.493 1219.15 189.109 1219.15 189.784C1219.15 190.517 1218.98 191.185 1218.62 191.786C1218.27 192.387 1217.76 192.864 1217.08 193.216C1216.42 193.568 1215.64 193.744 1214.73 193.744ZM1214.73 191.588C1215.3 191.588 1215.77 191.434 1216.14 191.126C1216.52 190.818 1216.71 190.378 1216.71 189.806C1216.71 189.234 1216.52 188.794 1216.14 188.486C1215.77 188.178 1215.3 188.024 1214.73 188.024C1214.13 188.024 1213.64 188.178 1213.28 188.486C1212.91 188.794 1212.73 189.234 1212.73 189.806C1212.73 190.378 1212.91 190.818 1213.28 191.126C1213.64 191.434 1214.13 191.588 1214.73 191.588ZM1212.09 198.342C1212.09 198.885 1212.34 199.288 1212.84 199.552C1213.35 199.831 1213.97 199.97 1214.71 199.97C1215.41 199.97 1215.98 199.823 1216.42 199.53C1216.86 199.251 1217.08 198.87 1217.08 198.386C1217.08 197.99 1216.94 197.66 1216.64 197.396C1216.37 197.132 1215.8 196.971 1214.95 196.912C1214.35 196.868 1213.79 196.802 1213.28 196.714C1212.85 196.949 1212.54 197.205 1212.35 197.484C1212.18 197.763 1212.09 198.049 1212.09 198.342ZM1222.64 197V186.088H1225.14L1225.41 188.134C1225.8 187.43 1226.34 186.873 1227.01 186.462C1227.7 186.037 1228.51 185.824 1229.43 185.824V188.794H1228.64C1228.03 188.794 1227.48 188.889 1226.99 189.08C1226.51 189.271 1226.13 189.601 1225.85 190.07C1225.58 190.539 1225.45 191.192 1225.45 192.028V197H1222.64ZM1236.47 197.264C1235.37 197.264 1234.39 197.029 1233.54 196.56C1232.69 196.091 1232.02 195.431 1231.54 194.58C1231.05 193.729 1230.81 192.747 1230.81 191.632C1230.81 190.503 1231.05 189.498 1231.52 188.618C1232 187.738 1232.66 187.056 1233.5 186.572C1234.35 186.073 1235.34 185.824 1236.49 185.824C1237.56 185.824 1238.51 186.059 1239.33 186.528C1240.15 186.997 1240.79 187.643 1241.24 188.464C1241.71 189.271 1241.94 190.173 1241.94 191.17C1241.94 191.331 1241.94 191.5 1241.92 191.676C1241.92 191.852 1241.92 192.035 1241.9 192.226H1233.61C1233.67 193.077 1233.96 193.744 1234.49 194.228C1235.03 194.712 1235.68 194.954 1236.44 194.954C1237.02 194.954 1237.49 194.829 1237.87 194.58C1238.27 194.316 1238.56 193.979 1238.75 193.568H1241.61C1241.41 194.257 1241.06 194.888 1240.58 195.46C1240.11 196.017 1239.52 196.457 1238.82 196.78C1238.13 197.103 1237.35 197.264 1236.47 197.264ZM1236.49 188.112C1235.8 188.112 1235.19 188.31 1234.66 188.706C1234.13 189.087 1233.8 189.674 1233.65 190.466H1239.08C1239.04 189.747 1238.78 189.175 1238.29 188.75C1237.81 188.325 1237.21 188.112 1236.49 188.112ZM1248.82 197.264C1247.85 197.264 1247 197.11 1246.27 196.802C1245.54 196.479 1244.95 196.039 1244.51 195.482C1244.07 194.925 1243.81 194.279 1243.72 193.546H1246.56C1246.64 193.971 1246.88 194.338 1247.26 194.646C1247.66 194.939 1248.16 195.086 1248.78 195.086C1249.39 195.086 1249.84 194.961 1250.12 194.712C1250.41 194.463 1250.56 194.177 1250.56 193.854C1250.56 193.385 1250.36 193.069 1249.94 192.908C1249.53 192.732 1248.96 192.563 1248.23 192.402C1247.76 192.299 1247.28 192.175 1246.8 192.028C1246.31 191.881 1245.87 191.698 1245.46 191.478C1245.06 191.243 1244.74 190.95 1244.49 190.598C1244.24 190.231 1244.11 189.784 1244.11 189.256C1244.11 188.288 1244.5 187.474 1245.26 186.814C1246.04 186.154 1247.12 185.824 1248.51 185.824C1249.81 185.824 1250.83 186.125 1251.59 186.726C1252.37 187.327 1252.83 188.156 1252.98 189.212H1250.32C1250.16 188.405 1249.55 188.002 1248.49 188.002C1247.96 188.002 1247.55 188.105 1247.26 188.31C1246.98 188.515 1246.84 188.772 1246.84 189.08C1246.84 189.403 1247.06 189.659 1247.48 189.85C1247.91 190.041 1248.47 190.217 1249.17 190.378C1249.94 190.554 1250.63 190.752 1251.26 190.972C1251.91 191.177 1252.42 191.493 1252.8 191.918C1253.19 192.329 1253.38 192.923 1253.38 193.7C1253.39 194.375 1253.22 194.983 1252.85 195.526C1252.48 196.069 1251.95 196.494 1251.26 196.802C1250.58 197.11 1249.76 197.264 1248.82 197.264Z" fill="#9F4CBC"/>
<rect x="1081.75" y="160" width="253" height="59" rx="11" stroke="#9F4CBC" stroke-width="2"/>
<rect x="1041.75" y="81" width="333" height="178" rx="7" stroke="#5F5872" stroke-width="2"/>
<rect x="1041.75" y="313" width="333" height="178" rx="7" fill="#141516"/>
<path d="M1094.79 372.698C1093.7 373.753 1092.51 373.586 1091.37 373.086C1090.16 372.575 1089.05 372.553 1087.77 373.086C1086.17 373.775 1085.32 373.575 1084.37 372.698C1078.95 367.109 1079.75 358.599 1085.9 358.288C1087.4 358.366 1088.45 359.11 1089.32 359.177C1090.63 358.91 1091.89 358.144 1093.29 358.244C1094.97 358.377 1096.23 359.044 1097.07 360.244C1093.6 362.321 1094.42 366.887 1097.6 368.165C1096.97 369.831 1096.14 371.487 1094.78 372.709L1094.79 372.698ZM1089.21 358.222C1089.05 355.744 1091.06 353.7 1093.37 353.5C1093.69 356.366 1090.77 358.499 1089.21 358.222Z" fill="#D2E0F8"/>
<path d="M1107.14 370V357.4H1109.44V362.638H1115.09V357.4H1117.4V370H1115.09V364.51H1109.44V370H1107.14ZM1124.07 370.216C1123.21 370.216 1122.43 370.018 1121.73 369.622C1121.05 369.226 1120.5 368.68 1120.1 367.984C1119.7 367.276 1119.5 366.46 1119.5 365.536C1119.5 364.612 1119.71 363.802 1120.11 363.106C1120.52 362.398 1121.07 361.846 1121.75 361.45C1122.45 361.054 1123.23 360.856 1124.09 360.856C1124.94 360.856 1125.71 361.054 1126.4 361.45C1127.09 361.846 1127.64 362.398 1128.03 363.106C1128.44 363.802 1128.65 364.612 1128.65 365.536C1128.65 366.46 1128.44 367.276 1128.03 367.984C1127.64 368.68 1127.09 369.226 1126.4 369.622C1125.7 370.018 1124.93 370.216 1124.07 370.216ZM1124.07 368.218C1124.67 368.218 1125.2 367.996 1125.64 367.552C1126.08 367.096 1126.31 366.424 1126.31 365.536C1126.31 364.648 1126.08 363.982 1125.64 363.538C1125.2 363.082 1124.68 362.854 1124.09 362.854C1123.48 362.854 1122.95 363.082 1122.51 363.538C1122.08 363.982 1121.86 364.648 1121.86 365.536C1121.86 366.424 1122.08 367.096 1122.51 367.552C1122.95 367.996 1123.47 368.218 1124.07 368.218ZM1134.4 370.216C1133.6 370.216 1132.91 370.09 1132.31 369.838C1131.71 369.574 1131.23 369.214 1130.87 368.758C1130.51 368.302 1130.29 367.774 1130.22 367.174H1132.54C1132.61 367.522 1132.81 367.822 1133.12 368.074C1133.44 368.314 1133.86 368.434 1134.36 368.434C1134.86 368.434 1135.23 368.332 1135.46 368.128C1135.7 367.924 1135.82 367.69 1135.82 367.426C1135.82 367.042 1135.65 366.784 1135.31 366.652C1134.98 366.508 1134.51 366.37 1133.91 366.238C1133.53 366.154 1133.14 366.052 1132.74 365.932C1132.34 365.812 1131.98 365.662 1131.64 365.482C1131.32 365.29 1131.05 365.05 1130.85 364.762C1130.65 364.462 1130.54 364.096 1130.54 363.664C1130.54 362.872 1130.86 362.206 1131.48 361.666C1132.12 361.126 1133 360.856 1134.14 360.856C1135.2 360.856 1136.04 361.102 1136.66 361.594C1137.3 362.086 1137.68 362.764 1137.8 363.628H1135.62C1135.49 362.968 1134.99 362.638 1134.13 362.638C1133.69 362.638 1133.36 362.722 1133.12 362.89C1132.89 363.058 1132.78 363.268 1132.78 363.52C1132.78 363.784 1132.95 363.994 1133.3 364.15C1133.65 364.306 1134.11 364.45 1134.68 364.582C1135.31 364.726 1135.88 364.888 1136.39 365.068C1136.92 365.236 1137.34 365.494 1137.65 365.842C1137.97 366.178 1138.12 366.664 1138.12 367.3C1138.13 367.852 1137.99 368.35 1137.69 368.794C1137.39 369.238 1136.96 369.586 1136.39 369.838C1135.83 370.09 1135.16 370.216 1134.4 370.216ZM1143.86 370C1142.92 370 1142.17 369.772 1141.61 369.316C1141.05 368.86 1140.76 368.05 1140.76 366.886V362.998H1139.23V361.072H1140.76L1141.03 358.678H1143.07V361.072H1145.48V362.998H1143.07V366.904C1143.07 367.336 1143.16 367.636 1143.34 367.804C1143.53 367.96 1143.85 368.038 1144.31 368.038H1145.43V370H1143.86Z" fill="#D2E0F8"/>
<rect x="1081.75" y="392" width="253" height="59" rx="11" fill="#9F4CBC" fill-opacity="0.1"/>
<path d="M1142.38 429V413.6H1148.04C1149.27 413.6 1150.28 413.813 1151.07 414.238C1151.88 414.649 1152.48 415.213 1152.88 415.932C1153.27 416.636 1153.47 417.421 1153.47 418.286C1153.47 419.225 1153.22 420.083 1152.72 420.86C1152.24 421.637 1151.48 422.202 1150.43 422.554L1153.62 429H1150.39L1147.53 422.928H1145.2V429H1142.38ZM1145.2 420.86H1147.86C1148.8 420.86 1149.49 420.633 1149.93 420.178C1150.37 419.723 1150.59 419.122 1150.59 418.374C1150.59 417.641 1150.37 417.054 1149.93 416.614C1149.5 416.174 1148.81 415.954 1147.84 415.954H1145.2V420.86ZM1160.66 429.264C1159.56 429.264 1158.58 429.029 1157.73 428.56C1156.88 428.091 1156.21 427.431 1155.73 426.58C1155.25 425.729 1155 424.747 1155 423.632C1155 422.503 1155.24 421.498 1155.71 420.618C1156.19 419.738 1156.85 419.056 1157.69 418.572C1158.54 418.073 1159.54 417.824 1160.68 417.824C1161.75 417.824 1162.7 418.059 1163.52 418.528C1164.34 418.997 1164.98 419.643 1165.43 420.464C1165.9 421.271 1166.14 422.173 1166.14 423.17C1166.14 423.331 1166.13 423.5 1166.11 423.676C1166.11 423.852 1166.11 424.035 1166.09 424.226H1157.8C1157.86 425.077 1158.15 425.744 1158.68 426.228C1159.22 426.712 1159.87 426.954 1160.64 426.954C1161.21 426.954 1161.69 426.829 1162.07 426.58C1162.46 426.316 1162.76 425.979 1162.95 425.568H1165.81C1165.6 426.257 1165.26 426.888 1164.77 427.46C1164.3 428.017 1163.72 428.457 1163.01 428.78C1162.32 429.103 1161.54 429.264 1160.66 429.264ZM1160.68 420.112C1159.99 420.112 1159.38 420.31 1158.85 420.706C1158.33 421.087 1157.99 421.674 1157.84 422.466H1163.28C1163.23 421.747 1162.97 421.175 1162.48 420.75C1162 420.325 1161.4 420.112 1160.68 420.112ZM1172.27 429.264C1171.33 429.264 1170.56 429.117 1169.96 428.824C1169.36 428.516 1168.91 428.113 1168.62 427.614C1168.32 427.115 1168.18 426.565 1168.18 425.964C1168.18 424.952 1168.57 424.131 1169.36 423.5C1170.16 422.869 1171.34 422.554 1172.93 422.554H1175.7V422.29C1175.7 421.542 1175.49 420.992 1175.06 420.64C1174.64 420.288 1174.11 420.112 1173.48 420.112C1172.91 420.112 1172.41 420.251 1171.98 420.53C1171.56 420.794 1171.29 421.19 1171.19 421.718H1168.44C1168.51 420.926 1168.78 420.237 1169.23 419.65C1169.7 419.063 1170.3 418.616 1171.04 418.308C1171.77 417.985 1172.59 417.824 1173.5 417.824C1175.05 417.824 1176.28 418.213 1177.17 418.99C1178.07 419.767 1178.52 420.867 1178.52 422.29V429H1176.12L1175.85 427.24C1175.53 427.827 1175.08 428.311 1174.49 428.692C1173.92 429.073 1173.18 429.264 1172.27 429.264ZM1172.91 427.064C1173.71 427.064 1174.34 426.8 1174.78 426.272C1175.23 425.744 1175.52 425.091 1175.63 424.314H1173.24C1172.49 424.314 1171.95 424.453 1171.63 424.732C1171.31 424.996 1171.15 425.326 1171.15 425.722C1171.15 426.147 1171.31 426.477 1171.63 426.712C1171.95 426.947 1172.38 427.064 1172.91 427.064ZM1186.55 429.264C1185.43 429.264 1184.45 429.022 1183.6 428.538C1182.75 428.054 1182.08 427.379 1181.58 426.514C1181.09 425.649 1180.85 424.659 1180.85 423.544C1180.85 422.429 1181.09 421.439 1181.58 420.574C1182.08 419.709 1182.75 419.034 1183.6 418.55C1184.45 418.066 1185.43 417.824 1186.55 417.824C1187.94 417.824 1189.12 418.191 1190.07 418.924C1191.02 419.643 1191.63 420.64 1191.89 421.916H1188.92C1188.78 421.388 1188.48 420.977 1188.04 420.684C1187.62 420.376 1187.11 420.222 1186.53 420.222C1185.75 420.222 1185.09 420.515 1184.55 421.102C1184 421.689 1183.73 422.503 1183.73 423.544C1183.73 424.585 1184 425.399 1184.55 425.986C1185.09 426.573 1185.75 426.866 1186.53 426.866C1187.11 426.866 1187.62 426.719 1188.04 426.426C1188.48 426.133 1188.78 425.715 1188.92 425.172H1191.89C1191.63 426.404 1191.02 427.394 1190.07 428.142C1189.12 428.89 1187.94 429.264 1186.55 429.264ZM1199.11 429C1197.96 429 1197.04 428.721 1196.36 428.164C1195.67 427.607 1195.32 426.617 1195.32 425.194V420.442H1193.45V418.088H1195.32L1195.65 415.162H1198.14V418.088H1201.09V420.442H1198.14V425.216C1198.14 425.744 1198.25 426.111 1198.47 426.316C1198.7 426.507 1199.1 426.602 1199.66 426.602H1201.02V429H1199.11ZM1208.81 429V413.6H1211.63L1218.87 424.446V413.6H1221.68V429H1218.87L1211.63 418.176V429H1208.81ZM1228.36 429.264C1227.42 429.264 1226.65 429.117 1226.05 428.824C1225.45 428.516 1225 428.113 1224.71 427.614C1224.42 427.115 1224.27 426.565 1224.27 425.964C1224.27 424.952 1224.67 424.131 1225.46 423.5C1226.25 422.869 1227.44 422.554 1229.02 422.554H1231.79V422.29C1231.79 421.542 1231.58 420.992 1231.16 420.64C1230.73 420.288 1230.2 420.112 1229.57 420.112C1229 420.112 1228.5 420.251 1228.08 420.53C1227.65 420.794 1227.39 421.19 1227.28 421.718H1224.53C1224.61 420.926 1224.87 420.237 1225.33 419.65C1225.8 419.063 1226.4 418.616 1227.13 418.308C1227.86 417.985 1228.69 417.824 1229.59 417.824C1231.15 417.824 1232.37 418.213 1233.27 418.99C1234.16 419.767 1234.61 420.867 1234.61 422.29V429H1232.21L1231.95 427.24C1231.63 427.827 1231.17 428.311 1230.58 428.692C1230.01 429.073 1229.27 429.264 1228.36 429.264ZM1229 427.064C1229.81 427.064 1230.43 426.8 1230.87 426.272C1231.33 425.744 1231.61 425.091 1231.73 424.314H1229.33C1228.58 424.314 1228.05 424.453 1227.72 424.732C1227.4 424.996 1227.24 425.326 1227.24 425.722C1227.24 426.147 1227.4 426.477 1227.72 426.712C1228.05 426.947 1228.47 427.064 1229 427.064ZM1242.01 429C1240.87 429 1239.95 428.721 1239.26 428.164C1238.57 427.607 1238.23 426.617 1238.23 425.194V420.442H1236.36V418.088H1238.23L1238.56 415.162H1241.04V418.088H1243.99V420.442H1241.04V425.216C1241.04 425.744 1241.15 426.111 1241.37 426.316C1241.61 426.507 1242 426.602 1242.56 426.602H1243.92V429H1242.01ZM1247.93 416.394C1247.41 416.394 1246.99 416.24 1246.65 415.932C1246.33 415.624 1246.17 415.235 1246.17 414.766C1246.17 414.297 1246.33 413.915 1246.65 413.622C1246.99 413.314 1247.41 413.16 1247.93 413.16C1248.44 413.16 1248.86 413.314 1249.18 413.622C1249.52 413.915 1249.69 414.297 1249.69 414.766C1249.69 415.235 1249.52 415.624 1249.18 415.932C1248.86 416.24 1248.44 416.394 1247.93 416.394ZM1246.52 429V418.088H1249.33V429H1246.52ZM1255.22 429L1251.22 418.088H1254.16L1256.94 426.338L1259.71 418.088H1262.66L1258.63 429H1255.22ZM1269.2 429.264C1268.1 429.264 1267.12 429.029 1266.27 428.56C1265.42 428.091 1264.75 427.431 1264.27 426.58C1263.79 425.729 1263.54 424.747 1263.54 423.632C1263.54 422.503 1263.78 421.498 1264.25 420.618C1264.73 419.738 1265.39 419.056 1266.23 418.572C1267.08 418.073 1268.08 417.824 1269.22 417.824C1270.29 417.824 1271.24 418.059 1272.06 418.528C1272.88 418.997 1273.52 419.643 1273.97 420.464C1274.44 421.271 1274.68 422.173 1274.68 423.17C1274.68 423.331 1274.67 423.5 1274.65 423.676C1274.65 423.852 1274.65 424.035 1274.63 424.226H1266.34C1266.4 425.077 1266.69 425.744 1267.22 426.228C1267.76 426.712 1268.41 426.954 1269.18 426.954C1269.75 426.954 1270.22 426.829 1270.61 426.58C1271 426.316 1271.3 425.979 1271.49 425.568H1274.35C1274.14 426.257 1273.8 426.888 1273.31 427.46C1272.84 428.017 1272.26 428.457 1271.55 428.78C1270.86 429.103 1270.08 429.264 1269.2 429.264ZM1269.22 420.112C1268.53 420.112 1267.92 420.31 1267.39 420.706C1266.87 421.087 1266.53 421.674 1266.38 422.466H1271.82C1271.77 421.747 1271.51 421.175 1271.02 420.75C1270.54 420.325 1269.94 420.112 1269.22 420.112Z" fill="#9F4CBC"/>
<rect x="1081.75" y="392" width="253" height="59" rx="11" stroke="#9F4CBC" stroke-width="2"/>
<rect x="1041.75" y="313" width="333" height="178" rx="7" stroke="#5F5872" stroke-width="2"/>
<rect x="1041.75" y="545" width="333" height="178" rx="7" fill="#141516"/>
<path d="M1086.84 601.412C1087.34 601.412 1087.75 601.003 1087.75 600.499C1087.75 599.995 1087.34 599.586 1086.84 599.586C1086.33 599.586 1085.92 599.995 1085.92 600.499C1085.92 601.003 1086.33 601.412 1086.84 601.412Z" fill="#D2E0F8"/>
<path d="M1090.49 591.276V591.988H1083.18V591.014H1090.31C1090.02 590.567 1089.81 590.072 1089.7 589.553H1083.18V588.579H1089.58V588.543C1089.57 587.646 1089.84 586.769 1090.34 586.023H1081.66C1081.42 586.023 1081.19 586.119 1081.02 586.29C1080.85 586.462 1080.75 586.694 1080.75 586.936V605.5H1092.92V592.937C1091.95 592.668 1091.09 592.083 1090.49 591.276ZM1086.84 602.323C1086.48 602.323 1086.12 602.216 1085.82 602.015C1085.52 601.814 1085.29 601.529 1085.15 601.196C1085.01 600.862 1084.98 600.495 1085.05 600.141C1085.12 599.786 1085.29 599.461 1085.55 599.206C1085.8 598.95 1086.13 598.776 1086.48 598.706C1086.83 598.635 1087.2 598.672 1087.54 598.81C1087.87 598.948 1088.15 599.182 1088.35 599.482C1088.56 599.783 1088.66 600.136 1088.66 600.497C1088.66 600.981 1088.47 601.445 1088.13 601.788C1087.79 602.13 1087.32 602.323 1086.84 602.323Z" fill="#D2E0F8"/>
<path d="M1094.14 591.587C1095.82 591.587 1097.18 590.225 1097.18 588.544C1097.18 586.863 1095.82 585.5 1094.14 585.5C1092.46 585.5 1091.1 586.863 1091.1 588.544C1091.1 590.225 1092.46 591.587 1094.14 591.587Z" fill="#D2E0F8"/>
<path d="M1106.72 602V589.4H1109.02V594.638H1114.68V589.4H1116.98V602H1114.68V596.51H1109.02V602H1106.72ZM1123.66 602.216C1122.79 602.216 1122.01 602.018 1121.32 601.622C1120.63 601.226 1120.09 600.68 1119.68 599.984C1119.28 599.276 1119.09 598.46 1119.09 597.536C1119.09 596.612 1119.29 595.802 1119.7 595.106C1120.11 594.398 1120.65 593.846 1121.34 593.45C1122.03 593.054 1122.81 592.856 1123.68 592.856C1124.53 592.856 1125.3 593.054 1125.98 593.45C1126.68 593.846 1127.22 594.398 1127.62 595.106C1128.03 595.802 1128.23 596.612 1128.23 597.536C1128.23 598.46 1128.03 599.276 1127.62 599.984C1127.22 600.68 1126.68 601.226 1125.98 601.622C1125.28 602.018 1124.51 602.216 1123.66 602.216ZM1123.66 600.218C1124.26 600.218 1124.78 599.996 1125.22 599.552C1125.67 599.096 1125.89 598.424 1125.89 597.536C1125.89 596.648 1125.67 595.982 1125.22 595.538C1124.78 595.082 1124.26 594.854 1123.68 594.854C1123.06 594.854 1122.54 595.082 1122.09 595.538C1121.66 595.982 1121.44 596.648 1121.44 597.536C1121.44 598.424 1121.66 599.096 1122.09 599.552C1122.54 599.996 1123.06 600.218 1123.66 600.218ZM1133.98 602.216C1133.19 602.216 1132.49 602.09 1131.89 601.838C1131.29 601.574 1130.81 601.214 1130.45 600.758C1130.09 600.302 1129.88 599.774 1129.8 599.174H1132.13C1132.2 599.522 1132.39 599.822 1132.7 600.074C1133.03 600.314 1133.44 600.434 1133.94 600.434C1134.45 600.434 1134.81 600.332 1135.04 600.128C1135.28 599.924 1135.4 599.69 1135.4 599.426C1135.4 599.042 1135.23 598.784 1134.9 598.652C1134.56 598.508 1134.09 598.37 1133.49 598.238C1133.11 598.154 1132.72 598.052 1132.32 597.932C1131.93 597.812 1131.56 597.662 1131.23 597.482C1130.9 597.29 1130.64 597.05 1130.43 596.762C1130.23 596.462 1130.13 596.096 1130.13 595.664C1130.13 594.872 1130.44 594.206 1131.06 593.666C1131.7 593.126 1132.59 592.856 1133.73 592.856C1134.78 592.856 1135.62 593.102 1136.25 593.594C1136.88 594.086 1137.26 594.764 1137.38 595.628H1135.2C1135.07 594.968 1134.57 594.638 1133.71 594.638C1133.28 594.638 1132.94 594.722 1132.7 594.89C1132.47 595.058 1132.36 595.268 1132.36 595.52C1132.36 595.784 1132.53 595.994 1132.88 596.15C1133.23 596.306 1133.69 596.45 1134.27 596.582C1134.89 596.726 1135.46 596.888 1135.98 597.068C1136.51 597.236 1136.93 597.494 1137.24 597.842C1137.55 598.178 1137.71 598.664 1137.71 599.3C1137.72 599.852 1137.57 600.35 1137.27 600.794C1136.97 601.238 1136.54 601.586 1135.98 601.838C1135.41 602.09 1134.75 602.216 1133.98 602.216ZM1143.44 602C1142.51 602 1141.76 601.772 1141.19 601.316C1140.63 600.86 1140.35 600.05 1140.35 598.886V594.998H1138.82V593.072H1140.35L1140.62 590.678H1142.65V593.072H1145.06V594.998H1142.65V598.904C1142.65 599.336 1142.74 599.636 1142.92 599.804C1143.11 599.96 1143.44 600.038 1143.89 600.038H1145.01V602H1143.44Z" fill="#D2E0F8"/>
<rect x="1081.75" y="624" width="253" height="59" rx="11" fill="#9F4CBC" fill-opacity="0.1"/>
<path d="M1172.41 661V645.6H1175.22L1182.46 656.446V645.6H1185.28V661H1182.46L1175.22 650.176V661H1172.41ZM1193.5 661.264C1192.4 661.264 1191.42 661.029 1190.57 660.56C1189.72 660.091 1189.05 659.431 1188.57 658.58C1188.09 657.729 1187.84 656.747 1187.84 655.632C1187.84 654.503 1188.08 653.498 1188.55 652.618C1189.03 651.738 1189.69 651.056 1190.53 650.572C1191.38 650.073 1192.38 649.824 1193.52 649.824C1194.59 649.824 1195.54 650.059 1196.36 650.528C1197.18 650.997 1197.82 651.643 1198.27 652.464C1198.74 653.271 1198.98 654.173 1198.98 655.17C1198.98 655.331 1198.97 655.5 1198.95 655.676C1198.95 655.852 1198.95 656.035 1198.93 656.226H1190.64C1190.7 657.077 1190.99 657.744 1191.52 658.228C1192.06 658.712 1192.71 658.954 1193.48 658.954C1194.05 658.954 1194.52 658.829 1194.91 658.58C1195.3 658.316 1195.59 657.979 1195.79 657.568H1198.65C1198.44 658.257 1198.1 658.888 1197.61 659.46C1197.14 660.017 1196.56 660.457 1195.85 660.78C1195.16 661.103 1194.38 661.264 1193.5 661.264ZM1193.52 652.112C1192.83 652.112 1192.22 652.31 1191.69 652.706C1191.17 653.087 1190.83 653.674 1190.68 654.466H1196.12C1196.07 653.747 1195.81 653.175 1195.32 652.75C1194.84 652.325 1194.24 652.112 1193.52 652.112ZM1199.56 661L1203.52 655.544L1199.56 650.088H1202.57L1205.34 653.96L1208.09 650.088H1211.13L1207.15 655.544L1211.13 661H1208.09L1205.34 657.128L1202.57 661H1199.56ZM1217.79 661C1216.64 661 1215.73 660.721 1215.04 660.164C1214.35 659.607 1214 658.617 1214 657.194V652.442H1212.13V650.088H1214L1214.33 647.162H1216.82V650.088H1219.77V652.442H1216.82V657.216C1216.82 657.744 1216.93 658.111 1217.15 658.316C1217.38 658.507 1217.78 658.602 1218.34 658.602H1219.7V661H1217.79ZM1226.28 661.264C1224.78 661.264 1223.58 660.846 1222.67 660.01C1221.77 659.159 1221.33 657.957 1221.33 656.402H1224.14C1224.16 657.121 1224.33 657.693 1224.65 658.118C1224.97 658.543 1225.49 658.756 1226.21 658.756C1226.88 658.756 1227.38 658.558 1227.68 658.162C1227.99 657.751 1228.15 657.216 1228.15 656.556V645.6H1230.96V656.556C1230.96 658.067 1230.54 659.233 1229.69 660.054C1228.85 660.861 1227.71 661.264 1226.28 661.264ZM1239.22 661.264C1238.09 661.264 1237.09 661.073 1236.22 660.692C1235.36 660.296 1234.68 659.739 1234.18 659.02C1233.68 658.287 1233.42 657.399 1233.41 656.358H1236.38C1236.41 657.077 1236.66 657.685 1237.15 658.184C1237.65 658.668 1238.33 658.91 1239.19 658.91C1239.94 658.91 1240.54 658.734 1240.98 658.382C1241.42 658.015 1241.64 657.531 1241.64 656.93C1241.64 656.299 1241.44 655.808 1241.04 655.456C1240.66 655.104 1240.15 654.818 1239.5 654.598C1238.86 654.378 1238.17 654.143 1237.43 653.894C1236.25 653.483 1235.34 652.955 1234.71 652.31C1234.09 651.665 1233.78 650.807 1233.78 649.736C1233.77 648.827 1233.98 648.049 1234.42 647.404C1234.88 646.744 1235.49 646.238 1236.27 645.886C1237.05 645.519 1237.94 645.336 1238.95 645.336C1239.98 645.336 1240.88 645.519 1241.66 645.886C1242.45 646.253 1243.07 646.766 1243.51 647.426C1243.96 648.086 1244.2 648.871 1244.23 649.78H1241.22C1241.2 649.237 1240.99 648.761 1240.58 648.35C1240.18 647.925 1239.63 647.712 1238.91 647.712C1238.29 647.697 1237.77 647.851 1237.35 648.174C1236.94 648.482 1236.73 648.937 1236.73 649.538C1236.73 650.051 1236.89 650.462 1237.21 650.77C1237.54 651.063 1237.98 651.313 1238.53 651.518C1239.09 651.723 1239.73 651.943 1240.45 652.178C1241.21 652.442 1241.91 652.75 1242.54 653.102C1243.17 653.454 1243.68 653.923 1244.06 654.51C1244.44 655.082 1244.63 655.823 1244.63 656.732C1244.63 657.539 1244.42 658.287 1244.01 658.976C1243.6 659.665 1242.99 660.223 1242.19 660.648C1241.38 661.059 1240.39 661.264 1239.22 661.264Z" fill="#9F4CBC"/>
<rect x="1081.75" y="624" width="253" height="59" rx="11" stroke="#9F4CBC" stroke-width="2"/>
<rect x="1041.75" y="545" width="333" height="178" rx="7" stroke="#5F5872" stroke-width="2"/>
<rect x="1041.75" y="777" width="333" height="178" rx="7" fill="#141516"/>
<path d="M1086.84 833.412C1087.34 833.412 1087.75 833.003 1087.75 832.499C1087.75 831.995 1087.34 831.586 1086.84 831.586C1086.33 831.586 1085.92 831.995 1085.92 832.499C1085.92 833.003 1086.33 833.412 1086.84 833.412Z" fill="#D2E0F8"/>
<path d="M1090.49 823.276V823.988H1083.18V823.014H1090.31C1090.02 822.567 1089.81 822.072 1089.7 821.553H1083.18V820.579H1089.58V820.543C1089.57 819.646 1089.84 818.769 1090.34 818.023H1081.66C1081.42 818.023 1081.19 818.119 1081.02 818.29C1080.85 818.462 1080.75 818.694 1080.75 818.936V837.5H1092.92V824.937C1091.95 824.668 1091.09 824.083 1090.49 823.276ZM1086.84 834.323C1086.48 834.323 1086.12 834.216 1085.82 834.015C1085.52 833.814 1085.29 833.529 1085.15 833.196C1085.01 832.862 1084.98 832.495 1085.05 832.141C1085.12 831.786 1085.29 831.461 1085.55 831.206C1085.8 830.95 1086.13 830.776 1086.48 830.706C1086.83 830.635 1087.2 830.672 1087.54 830.81C1087.87 830.948 1088.15 831.182 1088.35 831.482C1088.56 831.783 1088.66 832.136 1088.66 832.497C1088.66 832.981 1088.47 833.445 1088.13 833.788C1087.79 834.13 1087.32 834.323 1086.84 834.323Z" fill="#D2E0F8"/>
<path d="M1094.14 823.587C1095.82 823.587 1097.18 822.225 1097.18 820.544C1097.18 818.863 1095.82 817.5 1094.14 817.5C1092.46 817.5 1091.1 818.863 1091.1 820.544C1091.1 822.225 1092.46 823.587 1094.14 823.587Z" fill="#D2E0F8"/>
<path d="M1110.32 834L1105.72 821.4H1108.18L1111.75 831.642L1115.33 821.4H1117.76L1113.15 834H1110.32ZM1119.26 834V821.4H1121.99L1126.01 829.392L1129.97 821.4H1132.7V834H1130.4V825.306L1126.89 832.2H1125.07L1121.56 825.306V834H1119.26Z" fill="#D2E0F8"/>
<rect x="1081.75" y="856" width="253" height="59" rx="11" fill="#9F4CBC" fill-opacity="0.1"/>
<path d="M1098.45 893V877.6H1108.5V879.866H1101.26V884.09H1107.84V886.29H1101.26V890.734H1108.5V893H1098.45ZM1110.06 893L1114.02 887.544L1110.06 882.088H1113.08L1115.85 885.96L1118.6 882.088H1121.64L1117.65 887.544L1121.64 893H1118.6L1115.85 889.128L1113.08 893H1110.06ZM1123.43 897.84V882.088H1125.94L1126.25 883.65C1126.6 883.166 1127.06 882.741 1127.63 882.374C1128.22 882.007 1128.97 881.824 1129.9 881.824C1130.93 881.824 1131.84 882.073 1132.65 882.572C1133.46 883.071 1134.09 883.753 1134.56 884.618C1135.03 885.483 1135.27 886.466 1135.27 887.566C1135.27 888.666 1135.03 889.649 1134.56 890.514C1134.09 891.365 1133.46 892.039 1132.65 892.538C1131.84 893.022 1130.93 893.264 1129.9 893.264C1129.08 893.264 1128.36 893.11 1127.74 892.802C1127.13 892.494 1126.63 892.061 1126.25 891.504V897.84H1123.43ZM1129.3 890.8C1130.2 890.8 1130.94 890.499 1131.53 889.898C1132.11 889.297 1132.41 888.519 1132.41 887.566C1132.41 886.613 1132.11 885.828 1131.53 885.212C1130.94 884.596 1130.2 884.288 1129.3 884.288C1128.4 884.288 1127.65 884.596 1127.06 885.212C1126.49 885.813 1126.2 886.591 1126.2 887.544C1126.2 888.497 1126.49 889.282 1127.06 889.898C1127.65 890.499 1128.4 890.8 1129.3 890.8ZM1137.78 893V882.088H1140.29L1140.55 884.134C1140.95 883.43 1141.49 882.873 1142.16 882.462C1142.85 882.037 1143.66 881.824 1144.58 881.824V884.794H1143.79C1143.17 884.794 1142.62 884.889 1142.14 885.08C1141.65 885.271 1141.27 885.601 1140.99 886.07C1140.73 886.539 1140.6 887.192 1140.6 888.028V893H1137.78ZM1151.61 893.264C1150.51 893.264 1149.54 893.029 1148.69 892.56C1147.84 892.091 1147.17 891.431 1146.69 890.58C1146.2 889.729 1145.96 888.747 1145.96 887.632C1145.96 886.503 1146.19 885.498 1146.66 884.618C1147.15 883.738 1147.81 883.056 1148.64 882.572C1149.49 882.073 1150.49 881.824 1151.64 881.824C1152.71 881.824 1153.65 882.059 1154.47 882.528C1155.3 882.997 1155.93 883.643 1156.39 884.464C1156.86 885.271 1157.09 886.173 1157.09 887.17C1157.09 887.331 1157.08 887.5 1157.07 887.676C1157.07 887.852 1157.06 888.035 1157.05 888.226H1148.75C1148.81 889.077 1149.11 889.744 1149.63 890.228C1150.18 890.712 1150.83 890.954 1151.59 890.954C1152.16 890.954 1152.64 890.829 1153.02 890.58C1153.42 890.316 1153.71 889.979 1153.9 889.568H1156.76C1156.56 890.257 1156.21 890.888 1155.73 891.46C1155.26 892.017 1154.67 892.457 1153.97 892.78C1153.28 893.103 1152.49 893.264 1151.61 893.264ZM1151.64 884.112C1150.95 884.112 1150.34 884.31 1149.81 884.706C1149.28 885.087 1148.94 885.674 1148.8 886.466H1154.23C1154.19 885.747 1153.92 885.175 1153.44 884.75C1152.96 884.325 1152.35 884.112 1151.64 884.112ZM1163.97 893.264C1163 893.264 1162.15 893.11 1161.42 892.802C1160.68 892.479 1160.1 892.039 1159.66 891.482C1159.22 890.925 1158.95 890.279 1158.87 889.546H1161.7C1161.79 889.971 1162.03 890.338 1162.41 890.646C1162.8 890.939 1163.31 891.086 1163.93 891.086C1164.54 891.086 1164.99 890.961 1165.27 890.712C1165.56 890.463 1165.71 890.177 1165.71 889.854C1165.71 889.385 1165.5 889.069 1165.09 888.908C1164.68 888.732 1164.11 888.563 1163.38 888.402C1162.91 888.299 1162.43 888.175 1161.95 888.028C1161.46 887.881 1161.01 887.698 1160.6 887.478C1160.21 887.243 1159.89 886.95 1159.64 886.598C1159.39 886.231 1159.26 885.784 1159.26 885.256C1159.26 884.288 1159.64 883.474 1160.41 882.814C1161.18 882.154 1162.27 881.824 1163.66 881.824C1164.95 881.824 1165.98 882.125 1166.74 882.726C1167.52 883.327 1167.98 884.156 1168.13 885.212H1165.47C1165.3 884.405 1164.7 884.002 1163.64 884.002C1163.11 884.002 1162.7 884.105 1162.41 884.31C1162.13 884.515 1161.99 884.772 1161.99 885.08C1161.99 885.403 1162.2 885.659 1162.63 885.85C1163.05 886.041 1163.62 886.217 1164.32 886.378C1165.08 886.554 1165.78 886.752 1166.41 886.972C1167.06 887.177 1167.57 887.493 1167.95 887.918C1168.33 888.329 1168.52 888.923 1168.52 889.7C1168.54 890.375 1168.36 890.983 1168 891.526C1167.63 892.069 1167.1 892.494 1166.41 892.802C1165.72 893.11 1164.91 893.264 1163.97 893.264ZM1175.53 893.264C1174.56 893.264 1173.71 893.11 1172.98 892.802C1172.24 892.479 1171.66 892.039 1171.22 891.482C1170.78 890.925 1170.51 890.279 1170.42 889.546H1173.26C1173.35 889.971 1173.59 890.338 1173.97 890.646C1174.36 890.939 1174.87 891.086 1175.48 891.086C1176.1 891.086 1176.55 890.961 1176.83 890.712C1177.12 890.463 1177.27 890.177 1177.27 889.854C1177.27 889.385 1177.06 889.069 1176.65 888.908C1176.24 888.732 1175.67 888.563 1174.93 888.402C1174.47 888.299 1173.99 888.175 1173.5 888.028C1173.02 887.881 1172.57 887.698 1172.16 887.478C1171.77 887.243 1171.44 886.95 1171.19 886.598C1170.95 886.231 1170.82 885.784 1170.82 885.256C1170.82 884.288 1171.2 883.474 1171.96 882.814C1172.74 882.154 1173.83 881.824 1175.22 881.824C1176.51 881.824 1177.54 882.125 1178.3 882.726C1179.08 883.327 1179.54 884.156 1179.69 885.212H1177.02C1176.86 884.405 1176.25 884.002 1175.2 884.002C1174.67 884.002 1174.26 884.105 1173.97 884.31C1173.69 884.515 1173.55 884.772 1173.55 885.08C1173.55 885.403 1173.76 885.659 1174.19 885.85C1174.61 886.041 1175.18 886.217 1175.88 886.378C1176.64 886.554 1177.34 886.752 1177.97 886.972C1178.62 887.177 1179.13 887.493 1179.51 887.918C1179.89 888.329 1180.08 888.923 1180.08 889.7C1180.1 890.375 1179.92 890.983 1179.55 891.526C1179.19 892.069 1178.66 892.494 1177.97 892.802C1177.28 893.11 1176.47 893.264 1175.53 893.264ZM1186.67 893.264C1185.17 893.264 1183.97 892.846 1183.06 892.01C1182.17 891.159 1181.72 889.957 1181.72 888.402H1184.54C1184.55 889.121 1184.72 889.693 1185.04 890.118C1185.36 890.543 1185.88 890.756 1186.6 890.756C1187.28 890.756 1187.77 890.558 1188.08 890.162C1188.39 889.751 1188.54 889.216 1188.54 888.556V877.6H1191.36V888.556C1191.36 890.067 1190.93 891.233 1190.08 892.054C1189.24 892.861 1188.11 893.264 1186.67 893.264ZM1199.61 893.264C1198.48 893.264 1197.48 893.073 1196.62 892.692C1195.75 892.296 1195.07 891.739 1194.57 891.02C1194.07 890.287 1193.82 889.399 1193.8 888.358H1196.77C1196.8 889.077 1197.06 889.685 1197.54 890.184C1198.04 890.668 1198.72 890.91 1199.59 890.91C1200.34 890.91 1200.93 890.734 1201.37 890.382C1201.81 890.015 1202.03 889.531 1202.03 888.93C1202.03 888.299 1201.83 887.808 1201.44 887.456C1201.06 887.104 1200.54 886.818 1199.9 886.598C1199.25 886.378 1198.56 886.143 1197.83 885.894C1196.64 885.483 1195.73 884.955 1195.1 884.31C1194.48 883.665 1194.18 882.807 1194.18 881.736C1194.16 880.827 1194.37 880.049 1194.81 879.404C1195.27 878.744 1195.89 878.238 1196.66 877.886C1197.44 877.519 1198.33 877.336 1199.35 877.336C1200.37 877.336 1201.28 877.519 1202.05 877.886C1202.84 878.253 1203.46 878.766 1203.9 879.426C1204.36 880.086 1204.6 880.871 1204.63 881.78H1201.61C1201.6 881.237 1201.39 880.761 1200.97 880.35C1200.58 879.925 1200.02 879.712 1199.3 879.712C1198.69 879.697 1198.17 879.851 1197.74 880.174C1197.33 880.482 1197.12 880.937 1197.12 881.538C1197.12 882.051 1197.29 882.462 1197.61 882.77C1197.93 883.063 1198.37 883.313 1198.93 883.518C1199.49 883.723 1200.12 883.943 1200.84 884.178C1201.61 884.442 1202.3 884.75 1202.93 885.102C1203.56 885.454 1204.07 885.923 1204.45 886.51C1204.83 887.082 1205.02 887.823 1205.02 888.732C1205.02 889.539 1204.82 890.287 1204.41 890.976C1204 891.665 1203.39 892.223 1202.58 892.648C1201.77 893.059 1200.78 893.264 1199.61 893.264ZM1211.73 893L1217.36 877.6H1220.53L1226.16 893H1223.17L1221.94 889.436H1215.93L1214.68 893H1211.73ZM1216.7 887.236H1221.17L1218.93 880.834L1216.7 887.236ZM1228.15 893V877.6H1233.85C1235.08 877.6 1236.1 877.805 1236.9 878.216C1237.71 878.627 1238.31 879.191 1238.71 879.91C1239.1 880.629 1239.3 881.435 1239.3 882.33C1239.3 883.181 1239.11 883.965 1238.73 884.684C1238.35 885.388 1237.75 885.96 1236.95 886.4C1236.14 886.825 1235.11 887.038 1233.85 887.038H1230.96V893H1228.15ZM1230.96 884.75H1233.67C1234.65 884.75 1235.36 884.537 1235.78 884.112C1236.22 883.672 1236.44 883.078 1236.44 882.33C1236.44 881.567 1236.22 880.973 1235.78 880.548C1235.36 880.108 1234.65 879.888 1233.67 879.888H1230.96V884.75ZM1241.51 893V877.6H1244.33V893H1241.51ZM1257.81 893.264C1256.68 893.264 1255.68 893.073 1254.82 892.692C1253.95 892.296 1253.27 891.739 1252.77 891.02C1252.27 890.287 1252.02 889.399 1252 888.358H1254.97C1255 889.077 1255.26 889.685 1255.74 890.184C1256.24 890.668 1256.92 890.91 1257.79 890.91C1258.54 890.91 1259.13 890.734 1259.57 890.382C1260.01 890.015 1260.23 889.531 1260.23 888.93C1260.23 888.299 1260.03 887.808 1259.64 887.456C1259.26 887.104 1258.74 886.818 1258.1 886.598C1257.45 886.378 1256.76 886.143 1256.03 885.894C1254.84 885.483 1253.93 884.955 1253.3 884.31C1252.69 883.665 1252.38 882.807 1252.38 881.736C1252.36 880.827 1252.58 880.049 1253.02 879.404C1253.47 878.744 1254.09 878.238 1254.86 877.886C1255.64 877.519 1256.54 877.336 1257.55 877.336C1258.57 877.336 1259.48 877.519 1260.25 877.886C1261.05 878.253 1261.66 878.766 1262.1 879.426C1262.56 880.086 1262.8 880.871 1262.83 881.78H1259.81C1259.8 881.237 1259.59 880.761 1259.18 880.35C1258.78 879.925 1258.22 879.712 1257.5 879.712C1256.89 879.697 1256.37 879.851 1255.94 880.174C1255.53 880.482 1255.33 880.937 1255.33 881.538C1255.33 882.051 1255.49 882.462 1255.81 882.77C1256.13 883.063 1256.57 883.313 1257.13 883.518C1257.69 883.723 1258.32 883.943 1259.04 884.178C1259.81 884.442 1260.5 884.75 1261.13 885.102C1261.76 885.454 1262.27 885.923 1262.65 886.51C1263.03 887.082 1263.22 887.823 1263.22 888.732C1263.22 889.539 1263.02 890.287 1262.61 890.976C1262.2 891.665 1261.59 892.223 1260.78 892.648C1259.97 893.059 1258.98 893.264 1257.81 893.264ZM1270.92 893.264C1269.82 893.264 1268.84 893.029 1267.99 892.56C1267.14 892.091 1266.47 891.431 1265.99 890.58C1265.5 889.729 1265.26 888.747 1265.26 887.632C1265.26 886.503 1265.5 885.498 1265.97 884.618C1266.45 883.738 1267.11 883.056 1267.95 882.572C1268.8 882.073 1269.79 881.824 1270.94 881.824C1272.01 881.824 1272.96 882.059 1273.78 882.528C1274.6 882.997 1275.24 883.643 1275.69 884.464C1276.16 885.271 1276.39 886.173 1276.39 887.17C1276.39 887.331 1276.39 887.5 1276.37 887.676C1276.37 887.852 1276.37 888.035 1276.35 888.226H1268.06C1268.12 889.077 1268.41 889.744 1268.94 890.228C1269.48 890.712 1270.13 890.954 1270.89 890.954C1271.47 890.954 1271.94 890.829 1272.32 890.58C1272.72 890.316 1273.01 889.979 1273.2 889.568H1276.06C1275.86 890.257 1275.51 890.888 1275.03 891.46C1274.56 892.017 1273.97 892.457 1273.27 892.78C1272.58 893.103 1271.8 893.264 1270.92 893.264ZM1270.94 884.112C1270.25 884.112 1269.64 884.31 1269.11 884.706C1268.58 885.087 1268.25 885.674 1268.1 886.466H1273.53C1273.49 885.747 1273.23 885.175 1272.74 884.75C1272.26 884.325 1271.66 884.112 1270.94 884.112ZM1278.76 893V882.088H1281.27L1281.54 884.134C1281.93 883.43 1282.47 882.873 1283.14 882.462C1283.83 882.037 1284.64 881.824 1285.56 881.824V884.794H1284.77C1284.15 884.794 1283.6 884.889 1283.12 885.08C1282.64 885.271 1282.25 885.601 1281.98 886.07C1281.71 886.539 1281.58 887.192 1281.58 888.028V893H1278.76ZM1290.43 893L1286.43 882.088H1289.38L1292.15 890.338L1294.92 882.088H1297.87L1293.84 893H1290.43ZM1304.41 893.264C1303.31 893.264 1302.34 893.029 1301.48 892.56C1300.63 892.091 1299.97 891.431 1299.48 890.58C1299 889.729 1298.76 888.747 1298.76 887.632C1298.76 886.503 1298.99 885.498 1299.46 884.618C1299.94 883.738 1300.6 883.056 1301.44 882.572C1302.29 882.073 1303.29 881.824 1304.43 881.824C1305.5 881.824 1306.45 882.059 1307.27 882.528C1308.09 882.997 1308.73 883.643 1309.18 884.464C1309.65 885.271 1309.89 886.173 1309.89 887.17C1309.89 887.331 1309.88 887.5 1309.87 887.676C1309.87 887.852 1309.86 888.035 1309.84 888.226H1301.55C1301.61 889.077 1301.9 889.744 1302.43 890.228C1302.97 890.712 1303.63 890.954 1304.39 890.954C1304.96 890.954 1305.44 890.829 1305.82 890.58C1306.21 890.316 1306.51 889.979 1306.7 889.568H1309.56C1309.35 890.257 1309.01 890.888 1308.52 891.46C1308.06 892.017 1307.47 892.457 1306.76 892.78C1306.08 893.103 1305.29 893.264 1304.41 893.264ZM1304.43 884.112C1303.74 884.112 1303.13 884.31 1302.61 884.706C1302.08 885.087 1301.74 885.674 1301.59 886.466H1307.03C1306.98 885.747 1306.72 885.175 1306.24 884.75C1305.75 884.325 1305.15 884.112 1304.43 884.112ZM1312.26 893V882.088H1314.77L1315.03 884.134C1315.43 883.43 1315.96 882.873 1316.64 882.462C1317.32 882.037 1318.13 881.824 1319.06 881.824V884.794H1318.26C1317.65 884.794 1317.1 884.889 1316.61 885.08C1316.13 885.271 1315.75 885.601 1315.47 886.07C1315.21 886.539 1315.07 887.192 1315.07 888.028V893H1312.26Z" fill="#9F4CBC"/>
<rect x="1081.75" y="856" width="253" height="59" rx="11" stroke="#9F4CBC" stroke-width="2"/>
<rect x="1041.75" y="777" width="333" height="178" rx="7" stroke="#5F5872" stroke-width="2"/>
<rect x="81.25" y="464" width="318" height="108" rx="11" fill="#FFDB1C" fill-opacity="0.1"/>
<rect x="179.75" y="503" width="30" height="30" rx="4.42243" fill="#FFDB1C"/>
<rect x="180.093" y="503.343" width="29.3142" height="29.3142" rx="4.07952" fill="#FFDB1C" stroke="#FFDB1C" stroke-width="0.685815"/>
<path d="M192.698 506.723H197.302L193.302 516.432L193.107 516.905H193.619H196.551L195.396 520.895H191.821H189.649L192.698 506.723Z" stroke="black" stroke-width="0.685815"/>
<path d="M191.932 519.237L194.769 507.733H200.053L195.943 516.29H200.053L192.609 529.727L194.639 519.237H191.932Z" fill="black"/>
<path d="M226.134 525.764C225.313 525.764 224.594 525.61 223.978 525.302C223.362 524.994 222.864 524.561 222.482 524.004L222.174 525.5H219.666V509.66H222.482V516.15C222.834 515.666 223.296 515.241 223.868 514.874C224.455 514.507 225.21 514.324 226.134 514.324C227.161 514.324 228.078 514.573 228.884 515.072C229.691 515.571 230.329 516.253 230.798 517.118C231.268 517.983 231.502 518.966 231.502 520.066C231.502 521.166 231.268 522.149 230.798 523.014C230.329 523.865 229.691 524.539 228.884 525.038C228.078 525.522 227.161 525.764 226.134 525.764ZM225.54 523.3C226.435 523.3 227.176 522.999 227.762 522.398C228.349 521.797 228.642 521.019 228.642 520.066C228.642 519.113 228.349 518.328 227.762 517.712C227.176 517.096 226.435 516.788 225.54 516.788C224.631 516.788 223.883 517.096 223.296 517.712C222.724 518.313 222.438 519.091 222.438 520.044C222.438 520.997 222.724 521.782 223.296 522.398C223.883 522.999 224.631 523.3 225.54 523.3ZM239.254 525.764C238.198 525.764 237.245 525.522 236.394 525.038C235.558 524.554 234.891 523.887 234.392 523.036C233.908 522.171 233.666 521.173 233.666 520.044C233.666 518.915 233.915 517.925 234.414 517.074C234.913 516.209 235.58 515.534 236.416 515.05C237.267 514.566 238.22 514.324 239.276 514.324C240.317 514.324 241.256 514.566 242.092 515.05C242.943 515.534 243.61 516.209 244.094 517.074C244.593 517.925 244.842 518.915 244.842 520.044C244.842 521.173 244.593 522.171 244.094 523.036C243.61 523.887 242.943 524.554 242.092 525.038C241.241 525.522 240.295 525.764 239.254 525.764ZM239.254 523.322C239.987 523.322 240.625 523.051 241.168 522.508C241.711 521.951 241.982 521.129 241.982 520.044C241.982 518.959 241.711 518.145 241.168 517.602C240.625 517.045 239.995 516.766 239.276 516.766C238.528 516.766 237.883 517.045 237.34 517.602C236.812 518.145 236.548 518.959 236.548 520.044C236.548 521.129 236.812 521.951 237.34 522.508C237.883 523.051 238.521 523.322 239.254 523.322ZM247.36 525.5V509.66H250.176V525.5H247.36ZM257.915 525.5C256.771 525.5 255.854 525.221 255.165 524.664C254.476 524.107 254.131 523.117 254.131 521.694V516.942H252.261V514.588H254.131L254.461 511.662H256.947V514.588H259.895V516.942H256.947V521.716C256.947 522.244 257.057 522.611 257.277 522.816C257.512 523.007 257.908 523.102 258.465 523.102H259.829V525.5H257.915ZM274.595 525.764C273.04 525.764 271.706 525.434 270.591 524.774C269.476 524.099 268.618 523.168 268.017 521.98C267.416 520.777 267.115 519.391 267.115 517.822C267.115 516.253 267.416 514.867 268.017 513.664C268.618 512.461 269.476 511.523 270.591 510.848C271.706 510.173 273.04 509.836 274.595 509.836C276.443 509.836 277.954 510.298 279.127 511.222C280.315 512.131 281.056 513.415 281.349 515.072H278.247C278.056 514.236 277.646 513.583 277.015 513.114C276.399 512.63 275.578 512.388 274.551 512.388C273.128 512.388 272.014 512.872 271.207 513.84C270.4 514.808 269.997 516.135 269.997 517.822C269.997 519.509 270.4 520.836 271.207 521.804C272.014 522.757 273.128 523.234 274.551 523.234C275.578 523.234 276.399 523.014 277.015 522.574C277.646 522.119 278.056 521.496 278.247 520.704H281.349C281.056 522.288 280.315 523.527 279.127 524.422C277.954 525.317 276.443 525.764 274.595 525.764ZM283.842 525.5V510.1H286.658V523.3H293.478V525.5H283.842ZM295.959 525.5V510.1H298.775V525.5H295.959Z" fill="white"/>
<rect x="81.25" y="464" width="318" height="108" rx="11" stroke="#FFDB1C" stroke-width="2"/>
<path d="M1040.75 170L1030.75 175.773V164.227L1040.75 170ZM679.75 411V407.05H681.75V411H679.75ZM679.75 399.15V391.25H681.75V399.15H679.75ZM679.75 383.35V375.45H681.75V383.35H679.75ZM679.75 367.55V359.65H681.75V367.55H679.75ZM679.75 351.75V343.85H681.75V351.75H679.75ZM679.75 335.95V328.05H681.75V335.95H679.75ZM679.75 320.15V312.25H681.75V320.15H679.75ZM679.75 304.35V296.45H681.75V304.35H679.75ZM679.75 288.55V280.65H681.75V288.55H679.75ZM679.75 272.75V264.85H681.75V272.75H679.75ZM679.75 256.95V249.05H681.75V256.95H679.75ZM679.75 241.15V233.25H681.75V241.15H679.75ZM679.75 225.35V217.45H681.75V225.35H679.75ZM679.75 209.55V201.65H681.75V209.55H679.75ZM679.75 193.75V185.85H681.75V193.75H679.75ZM679.75 177.95V174H681.75V177.95H679.75ZM679.75 174C679.75 171.239 681.989 169 684.75 169V171C683.093 171 681.75 172.343 681.75 174H679.75ZM684.75 169H688.795V171H684.75V169ZM696.886 169H704.977V171H696.886V169ZM713.068 169H721.159V171H713.068V169ZM729.25 169H737.341V171H729.25V169ZM745.432 169H753.523V171H745.432V169ZM761.614 169H769.705V171H761.614V169ZM777.795 169H785.886V171H777.795V169ZM793.977 169H802.068V171H793.977V169ZM810.159 169H818.25V171H810.159V169ZM826.341 169H834.432V171H826.341V169ZM842.523 169H850.614V171H842.523V169ZM858.705 169H866.795V171H858.705V169ZM874.886 169H882.977V171H874.886V169ZM891.068 169H899.159V171H891.068V169ZM907.25 169H915.341V171H907.25V169ZM923.432 169H931.523V171H923.432V169ZM939.614 169H947.705V171H939.614V169ZM955.796 169H963.886V171H955.796V169ZM971.977 169H980.068V171H971.977V169ZM988.159 169H996.25V171H988.159V169ZM1004.34 169H1012.43V171H1004.34V169ZM1020.52 169H1028.61V171H1020.52V169Z" fill="#C8C8C8"/>
<path d="M1040.75 865L1030.75 859.227V870.773L1040.75 865ZM679.75 624V627.95H681.75V624H679.75ZM679.75 635.85V643.75H681.75V635.85H679.75ZM679.75 651.65V659.55H681.75V651.65H679.75ZM679.75 667.45V675.35H681.75V667.45H679.75ZM679.75 683.25V691.15H681.75V683.25H679.75ZM679.75 699.05V706.95H681.75V699.05H679.75ZM679.75 714.85V722.75H681.75V714.85H679.75ZM679.75 730.65V738.55H681.75V730.65H679.75ZM679.75 746.45V754.35H681.75V746.45H679.75ZM679.75 762.25V770.15H681.75V762.25H679.75ZM679.75 778.05V785.95H681.75V778.05H679.75ZM679.75 793.85V801.75H681.75V793.85H679.75ZM679.75 809.65V817.55H681.75V809.65H679.75ZM679.75 825.45V833.35H681.75V825.45H679.75ZM679.75 841.25V849.15H681.75V841.25H679.75ZM679.75 857.05V861H681.75V857.05H679.75ZM679.75 861C679.75 863.761 681.989 866 684.75 866V864C683.093 864 681.75 862.657 681.75 861H679.75ZM684.75 866H688.795V864H684.75V866ZM696.886 866H704.977V864H696.886V866ZM713.068 866H721.159V864H713.068V866ZM729.25 866H737.341V864H729.25V866ZM745.432 866H753.523V864H745.432V866ZM761.614 866H769.705V864H761.614V866ZM777.795 866H785.886V864H777.795V866ZM793.977 866H802.068V864H793.977V866ZM810.159 866H818.25V864H810.159V866ZM826.341 866H834.432V864H826.341V866ZM842.523 866H850.614V864H842.523V866ZM858.705 866H866.795V864H858.705V866ZM874.886 866H882.977V864H874.886V866ZM891.068 866H899.159V864H891.068V866ZM907.25 866H915.341V864H907.25V866ZM923.432 866H931.523V864H923.432V866ZM939.614 866H947.705V864H939.614V866ZM955.796 866H963.886V864H955.796V866ZM971.977 866H980.068V864H971.977V866ZM988.159 866H996.25V864H988.159V866ZM1004.34 866H1012.43V864H1004.34V866ZM1020.52 866H1028.61V864H1020.52V866Z" fill="#C8C8C8"/>
<path d="M960.75 482V483H961.75V482H960.75ZM960.75 402V401H959.75V402H960.75ZM1040.75 402L1030.75 396.226V407.774L1040.75 402ZM880.75 483H884.75V481H880.75V483ZM892.75 483H900.75V481H892.75V483ZM908.75 483H916.75V481H908.75V483ZM924.75 483H932.75V481H924.75V483ZM940.75 483H948.75V481H940.75V483ZM956.75 483H960.75V481H956.75V483ZM961.75 482V478H959.75V482H961.75ZM961.75 470V462H959.75V470H961.75ZM961.75 454V446H959.75V454H961.75ZM961.75 438V430H959.75V438H961.75ZM961.75 422V414H959.75V422H961.75ZM961.75 406V402H959.75V406H961.75ZM960.75 403H964.75V401H960.75V403ZM972.75 403H980.75V401H972.75V403ZM988.75 403H996.75V401H988.75V403ZM1004.75 403H1012.75V401H1004.75V403ZM1020.75 403H1028.75V401H1020.75V403Z" fill="#C8C8C8"/>
<path d="M960.75 554V553H961.75V554H960.75ZM960.75 634V635H959.75V634H960.75ZM1040.75 634L1030.75 639.774V628.226L1040.75 634ZM880.75 553H884.75V555H880.75V553ZM892.75 553H900.75V555H892.75V553ZM908.75 553H916.75V555H908.75V553ZM924.75 553H932.75V555H924.75V553ZM940.75 553H948.75V555H940.75V553ZM956.75 553H960.75V555H956.75V553ZM961.75 554V558H959.75V554H961.75ZM961.75 566V574H959.75V566H961.75ZM961.75 582V590H959.75V582H961.75ZM961.75 598V606H959.75V598H961.75ZM961.75 614V622H959.75V614H961.75ZM961.75 630V634H959.75V630H961.75ZM960.75 633H964.75V635H960.75V633ZM972.75 633H980.75V635H972.75V633ZM988.75 633H996.75V635H988.75V633ZM1004.75 633H1012.75V635H1004.75V633ZM1020.75 633H1028.75V635H1020.75V633Z" fill="#C8C8C8"/>
<defs>
<clipPath id="clip0_67_365">
<rect width="20" height="14.4531" fill="white" transform="translate(1080.75 124.273)"/>
</clipPath>
</defs>
</svg>
